<mxfile host="app.diagrams.net" modified="2022-01-24T03:49:03.478Z" agent="5.0 (Windows NT 10.0; Win64; x64) AppleWebKit/537.36 (KHTML, like Gecko) Chrome/97.0.4692.71 Safari/537.36" etag="eOsPcUGYCCGUa-B1aJdG" version="16.4.5" type="github">
  <diagram id="C5RBs43oDa-KdzZeNtuy" name="Page-1">
    <mxGraphModel dx="1038" dy="547" grid="0" gridSize="10" guides="1" tooltips="1" connect="1" arrows="1" fold="1" page="1" pageScale="1" pageWidth="827" pageHeight="1169" math="0" shadow="0">
      <root>
        <mxCell id="WIyWlLk6GJQsqaUBKTNV-0" />
        <mxCell id="WIyWlLk6GJQsqaUBKTNV-1" parent="WIyWlLk6GJQsqaUBKTNV-0" />
        <mxCell id="APKdjAW9OodBwm_x5ylF-2" value="" style="edgeStyle=orthogonalEdgeStyle;rounded=0;orthogonalLoop=1;jettySize=auto;html=1;fontSize=16;" edge="1" parent="WIyWlLk6GJQsqaUBKTNV-1" source="APKdjAW9OodBwm_x5ylF-0" target="APKdjAW9OodBwm_x5ylF-1">
          <mxGeometry relative="1" as="geometry" />
        </mxCell>
        <mxCell id="APKdjAW9OodBwm_x5ylF-0" value="根据“一种基于孪生神经网络的随访记录时序特征相似度检测方法”中得到的正常相似度集，计算平均值和方差" style="rounded=0;whiteSpace=wrap;html=1;fontSize=16;" vertex="1" parent="WIyWlLk6GJQsqaUBKTNV-1">
          <mxGeometry x="301" y="108" width="225" height="96" as="geometry" />
        </mxCell>
        <mxCell id="APKdjAW9OodBwm_x5ylF-4" value="" style="edgeStyle=orthogonalEdgeStyle;rounded=0;orthogonalLoop=1;jettySize=auto;html=1;fontSize=16;" edge="1" parent="WIyWlLk6GJQsqaUBKTNV-1" source="APKdjAW9OodBwm_x5ylF-1" target="APKdjAW9OodBwm_x5ylF-3">
          <mxGeometry relative="1" as="geometry" />
        </mxCell>
        <mxCell id="APKdjAW9OodBwm_x5ylF-1" value="根据“一种基于孪生神经网络的随访记录时序特征相似度检测方法”中得到的异常相似度集，计算最大值" style="rounded=0;whiteSpace=wrap;html=1;fontSize=16;" vertex="1" parent="WIyWlLk6GJQsqaUBKTNV-1">
          <mxGeometry x="301" y="256" width="225" height="96" as="geometry" />
        </mxCell>
        <mxCell id="APKdjAW9OodBwm_x5ylF-6" value="" style="edgeStyle=orthogonalEdgeStyle;rounded=0;orthogonalLoop=1;jettySize=auto;html=1;fontSize=16;" edge="1" parent="WIyWlLk6GJQsqaUBKTNV-1" source="APKdjAW9OodBwm_x5ylF-3" target="APKdjAW9OodBwm_x5ylF-5">
          <mxGeometry relative="1" as="geometry" />
        </mxCell>
        <mxCell id="APKdjAW9OodBwm_x5ylF-3" value="根据正常相似度集的平均值、方差和异常相似度集的最大值，计算待检测随访记录的时序特征异常检测结果" style="rounded=0;whiteSpace=wrap;html=1;fontSize=16;" vertex="1" parent="WIyWlLk6GJQsqaUBKTNV-1">
          <mxGeometry x="301" y="404" width="225" height="96" as="geometry" />
        </mxCell>
        <mxCell id="APKdjAW9OodBwm_x5ylF-5" value="根据“一种基于SVDD的随访记录内容异常检测方法”得到的待检测随访记录内容异常检测结果，结合内容异常检测结果和时序序特征异常检测结果，计算待检测随访记录的异常检测结果" style="rounded=0;whiteSpace=wrap;html=1;fontSize=16;" vertex="1" parent="WIyWlLk6GJQsqaUBKTNV-1">
          <mxGeometry x="301" y="552" width="225" height="153" as="geometry" />
        </mxCell>
      </root>
    </mxGraphModel>
  </diagram>
</mxfile>
